<svg xmlns="http://www.w3.org/2000/svg" width="500" height="500" version="1.0" viewBox="0 0 375 374.999991">
  <defs>
    <clipPath id="a">
      <path d="M74 3.304688h272.921875V345H74Zm0 0"/>
    </clipPath>
    <clipPath id="b">
      <path d="M28.171875 81H211v290.554688H28.171875Zm0 0"/>
    </clipPath>
  </defs>
  <g clip-path="url(#a)">
    <path fill="#6befe0" d="M187.328125 3.429688 346.9375 96.460938v182.398437l-45.960938 26.039063V150.039062l-21.800781 10.597657v156.628906l-45.953125 27.085937V163L74.132812 71.144531l47.136719-29.441406 134.335938 80.078125 21.214843-12.957031-133.160156-77.71875Zm0 0"/>
  </g>
  <g clip-path="url(#b)">
    <path fill="#8a3bbf" d="M51.742188 81.742188 28.171875 95.871094v104.738281l136.695313 78.96875v24.601563L28.171875 227.175781V279.4375l159.085937 91.996094 23.277344-13.171875V252.96875L74.132812 173.890625V151.21875l136.402344 75.371094v-52.699219Zm0 0"/>
  </g>
</svg>
